<svg xmlns="http://www.w3.org/2000/svg" viewBox="0 0 100 100">
  <defs>
    <linearGradient id="bg" x1="0%" y1="0%" x2="100%" y2="100%">
      <stop offset="0%" stop-color="#4f46e5" />
      <stop offset="100%" stop-color="#7c3aed" />
    </linearGradient>
  </defs>
  <rect width="100" height="100" rx="18" fill="url(#bg)" />
  <rect x="16" y="14" width="68" height="22" rx="4" fill="#1e1b4b" opacity="0.15" />
  <rect x="16" y="14" width="68" height="22" rx="4" fill="white" />
  <text x="76" y="30" text-anchor="end" font-size="13" font-family="monospace" font-weight="700" fill="#1e293b">1234</text>
  <g fill="white" font-family="Arial, sans-serif" font-weight="700" font-size="11" text-anchor="middle">
    <rect x="16" y="42" width="19" height="14" rx="3" fill="white" opacity="0.2" />
    <text x="25" y="53">7</text>
    <rect x="39" y="42" width="19" height="14" rx="3" fill="white" opacity="0.2" />
    <text x="48" y="53">8</text>
    <rect x="62" y="42" width="22" height="14" rx="3" fill="white" opacity="0.2" />
    <text x="73" y="53">9</text>

    <rect x="16" y="60" width="19" height="14" rx="3" fill="white" opacity="0.2" />
    <text x="25" y="71">4</text>
    <rect x="39" y="60" width="19" height="14" rx="3" fill="white" opacity="0.2" />
    <text x="48" y="71">5</text>
    <rect x="62" y="60" width="22" height="14" rx="3" fill="white" opacity="0.2" />
    <text x="73" y="71">6</text>

    <rect x="16" y="78" width="30" height="14" rx="3" fill="white" opacity="0.2" />
    <text x="31" y="89">0</text>
    <rect x="54" y="78" width="30" height="14" rx="3" fill="white" opacity="0.35" />
    <text x="69" y="89" fill="#a5b4fc">+</text>
  </g>
</svg>
